#tb 0: 1/25
0,          0,          0,        1,    46080, 0xcd234724
0,          1,          1,        1,    46080, 0x66649579
0,          2,          2,        1,    46080, 0x4317d38d
0,          3,          3,        1,    46080, 0x308dfc39
0,          4,          4,        1,    46080, 0xe08e3015
0,          5,          5,        1,    46080, 0xaa0a3e44
0,          6,          6,        1,    46080, 0x491b61cf
0,          7,          7,        1,    46080, 0x9c5a9749
0,          8,          8,        1,    46080, 0x4384ae34
0,          9,          9,        1,    46080, 0xfd2bf2c1
0,         10,         10,        1,    46080, 0xf29b18d7
0,         11,         11,        1,    46080, 0xc1912df5
0,         12,         12,        1,    46080, 0x9cc3344b
0,         13,         13,        1,    46080, 0x41c062a3
0,         14,         14,        1,    46080, 0xa5ec8417
0,         15,         15,        1,    46080, 0x94e5aed6
0,         16,         16,        1,    46080, 0x1af6ce24
0,         17,         17,        1,    46080, 0xd73c0272
0,         18,         18,        1,    46080, 0xb7b41c50
0,         19,         19,        1,    46080, 0x7fa442dc
0,         20,         20,        1,    46080, 0x513e5f5a
0,         21,         21,        1,    46080, 0x46a1848b
0,         22,         22,        1,    46080, 0xcf31a1c4
0,         23,         23,        1,    46080, 0x3ee8c90c
0,         24,         24,        1,    46080, 0xc54fdd27
0,         25,         25,        1,    46080, 0x59830556
0,         26,         26,        1,    46080, 0xf8c70cc7
0,         27,         27,        1,    46080, 0x44a519f9
0,         28,         28,        1,    46080, 0xdd0323d3
0,         29,         29,        1,    46080, 0x93874212
0,         30,         30,        1,    46080, 0xba8e4d8e
0,         31,         31,        1,    46080, 0x5c3f4fb0
0,         32,         32,        1,    46080, 0x37084bf2
0,         33,         33,        1,    46080, 0xad256b1b
0,         34,         34,        1,    46080, 0x862b7a7d
0,         35,         35,        1,    46080, 0x4a2e8d56
0,         36,         36,        1,    46080, 0xe99d8f5a
0,         37,         37,        1,    46080, 0xe41a9456
0,         38,         38,        1,    46080, 0xe7339f1c
0,         39,         39,        1,    46080, 0xfa38a6c3
0,         40,         40,        1,    46080, 0x219e97d2
0,         41,         41,        1,    46080, 0x652d9cc2
0,         42,         42,        1,    46080, 0x40bf8f94
0,         43,         43,        1,    46080, 0x2fee9e23
0,         44,         44,        1,    46080, 0xeea39203
0,         45,         45,        1,    46080, 0x69819b5c
0,         46,         46,        1,    46080, 0x511ba0b5
0,         47,         47,        1,    46080, 0x85fd892f
